<svg xmlns="http://www.w3.org/2000/svg" viewBox="0 0 32 32" id="change">
  <path d="M23.989 5.355a1.5 1.5 0 1 0-2.121 2.121l3.511 3.511H13.154a1.5 1.5 0 1 0 0 3h12.225l-3.511 3.511a1.5 1.5 0 1 0 2.122 2.121l6.071-6.072a1.5 1.5 0 0 0 0-2.121l-6.072-6.071z"></path>
  <path d="m1.939 20.574 6.071 6.071c.293.293.677.439 1.061.439s.768-.146 1.061-.439a1.5 1.5 0 0 0 0-2.121l-3.511-3.511h12.225a1.5 1.5 0 1 0 0-3H6.621l3.511-3.511a1.5 1.5 0 1 0-2.121-2.121L1.94 18.453a1.5 1.5 0 0 0-.001 2.121z"></path>
</svg>
