<svg xmlns="http://www.w3.org/2000/svg" enable-background="new 0 0 28 28" viewBox="0 0 28 28" id="supervisoraccount">
  <switch>
    <g fill="#000000" class="color000000 svgShape">
      <linearGradient id="a" x1="2" x2="26" y1="14" y2="14" gradientUnits="userSpaceOnUse">
        <stop offset="0" stop-color="#ffeb3b" class="stopColorfff33b svgShape"></stop>
        <stop offset=".04" stop-color="#fee92e" class="stopColorfee72e svgShape"></stop>
        <stop offset=".117" stop-color="#fee71b" class="stopColorfed51b svgShape"></stop>
        <stop offset=".196" stop-color="#fde510" class="stopColorfdca10 svgShape"></stop>
        <stop offset=".281" stop-color="#fde40c" class="stopColorfdc70c svgShape"></stop>
        <stop offset=".668" stop-color="#f3e13f" class="stopColorf3903f svgShape"></stop>
        <stop offset=".888" stop-color="#eddb3c" class="stopColored683c svgShape"></stop>
        <stop offset="1" stop-color="#e9d73a" class="stopColore93e3a svgShape"></stop>
      </linearGradient>
      <path fill="url(#a)" d="M18.5,24c-4.2,0-7.5-2-7.5-4.5s3.3-4.5,7.5-4.5s7.5,2,7.5,4.5S22.7,24,18.5,24z M9.1,24C9.1,24,9.1,24,9.1,24
			C5,23.7,2,21.6,2,19c0-2.8,3.5-5,8-5c0,0,0,0,0,0c0.4,0,0.8,0.2,0.9,0.6c0.2,0.4,0.1,0.8-0.2,1.1C9.6,16.8,9,18.1,9,19.5
			c0,1,0.3,2,0.9,2.9c0.2,0.3,0.2,0.7,0,1.1C9.8,23.8,9.5,24,9.1,24z M18.5,13c-1.7,0-3-1.3-3-3s1.3-3,3-3s3,1.3,3,3
			S20.2,13,18.5,13z M10,12c-2.2,0-4-1.8-4-4s1.8-4,4-4s4,1.8,4,4S12.2,12,10,12z"></path>
    </g>
  </switch>
</svg>
